<svg width="21" height="21" viewBox="0 0 21 21" fill="none" xmlns="http://www.w3.org/2000/svg">
<g clip-path="url(#clip0)">
<path d="M14.7835 5.27181H18.6627L13.7512 0.360352V4.23957C13.7512 4.80874 14.2143 5.27181 14.7835 5.27181V5.27181Z" fill="#001F43"/>
<path d="M14.7836 6.50233C13.5359 6.50233 12.5208 5.48728 12.5208 4.23962V0H4.23976C2.9921 0 1.97705 1.01501 1.97705 2.26267V18.7373C1.97705 19.9849 2.9921 21 4.23972 21H16.7605C18.0081 21 19.0231 19.9849 19.0231 18.7373V6.50233H14.7836Z" fill="#001F43"/>
<path d="M14.914 10.0162L10.5654 6.0538C10.3745 5.87985 10.0867 5.87987 9.89591 6.05378L5.54728 10.0163C5.39438 10.1556 5.34388 10.3702 5.41858 10.5631C5.4933 10.756 5.67521 10.8806 5.88207 10.8806H6.57661V14.8507C6.57661 15.0081 6.70424 15.1357 6.86165 15.1357H9.24523C9.40263 15.1357 9.53026 15.0081 9.53026 14.8507V12.4402H10.9311V14.8507C10.9311 15.0081 11.0588 15.1357 11.2162 15.1357H13.5996C13.757 15.1357 13.8847 15.0081 13.8847 14.8507V10.8806H14.5793C14.7862 10.8806 14.9681 10.756 15.0428 10.5631C15.1174 10.3702 15.0669 10.1556 14.914 10.0162Z" fill="#EAF4FC"/>
</g>
<defs>
<clipPath id="clip0">
<rect width="21" height="21" fill="white"/>
</clipPath>
</defs>
</svg>
